<svg xmlns="http://www.w3.org/2000/svg" viewBox="0 0 32 32"><title>rexicon-32-pdf-f</title><g fill="#333"><path d="M21 2v7h7l-7-7zm-5 13.4h-.6v4.2h.6a1.602 1.602 0 0 0 1.6-1.6v-1a1.602 1.602 0 0 0-1.6-1.6zm-5.3 0H9.4v1.8h1.3a.9.9 0 1 0 0-1.8z"/><path d="M19 9V2H6a2 2 0 0 0-2 2v24a2 2 0 0 0 2 2h20a2 2 0 0 0 2-2V11h-7a2 2 0 0 1-2-2zm-8.3 9.6H9.4V21H8v-7h2.7a2.3 2.3 0 1 1 0 4.6zM19 18a3.009 3.009 0 0 1-3 3h-2v-7h2a3.009 3.009 0 0 1 3 3zm5-4v1.4h-2.6V17h2.2v1.4h-2.2V21H20v-7h4z"/></g><path fill="none" d="M0 0h32v32H0z"/></svg>