<svg xmlns="http://www.w3.org/2000/svg" viewBox="0 0 32 32"><title>rexicon-32-world-f</title><g fill="#333"><path d="M19.123 23h-6.247c.883 3.193 2.237 5 3.124 5s2.241-1.807 3.123-5zM12.877 9h6.247C18.24 5.807 16.888 4 16 4s-2.241 1.807-3.123 5zm-.453 12h7.152a27.884 27.884 0 0 0 .403-4h-7.957a27.884 27.884 0 0 0 .402 4zm0-10a27.884 27.884 0 0 0-.402 4h7.957a27.884 27.884 0 0 0-.403-4z"/><path d="M16 2a14 14 0 1 0 14 14A14 14 0 0 0 16 2zm10.895 19a11.995 11.995 0 0 1-1.168 2H21.19a16.09 16.09 0 0 1-1.776 4.498 11.87 11.87 0 0 1-6.83 0A16.09 16.09 0 0 1 10.809 23H6.273a11.995 11.995 0 0 1-1.167-2H10.4a30.471 30.471 0 0 1-.38-4H4.05c-.027-.33-.05-.663-.05-1s.023-.67.05-1h5.972a30.471 30.471 0 0 1 .379-4H5.106a11.995 11.995 0 0 1 1.167-2h4.536a16.09 16.09 0 0 1 1.776-4.498 11.87 11.87 0 0 1 6.83 0A16.09 16.09 0 0 1 21.191 9h4.536a11.995 11.995 0 0 1 1.168 2h-5.296a30.471 30.471 0 0 1 .38 4h5.97c.028.33.051.662.051 1s-.023.67-.05 1h-5.972a30.471 30.471 0 0 1-.379 4z"/></g><path fill="none" d="M0 0h32v32H0z"/></svg>