<svg xmlns="http://www.w3.org/2000/svg" viewBox="0 0 32 32"><title>rexicon-32-tag-l</title><g fill="#333"><path d="M9 6a3 3 0 1 0 3 3 3 3 0 0 0-3-3zm0 4a1 1 0 1 1 1-1 1.001 1.001 0 0 1-1 1zm20.397 6l-1.371-1.371-1.415 1.414 1.371 1.37a.061.061 0 0 1 0 .087L17.5 27.982h-.086l-1.371-1.37-1.414 1.413L16 29.397a2.06 2.06 0 0 0 2.914 0l10.483-10.482a2.061 2.061 0 0 0 0-2.915z"/><path d="M25.197 14.629l1.414-1.414-1.414-1.414L15.397 2H4.06A2.06 2.06 0 0 0 2 4.061v11.335l11.215 11.215 1.414-1.414zM4 14.569V4.06A.061.061 0 0 1 4.061 4h10.507l9.215 9.215-10.568 10.568z"/></g><path fill="none" d="M0 0h32v32H0z"/></svg>