<svg xmlns="http://www.w3.org/2000/svg" viewBox="0 0 32 32"><title>rexicon-32-world-l</title><path d="M16 2a14 14 0 1 0 14 14A14 14 0 0 0 16 2zm10.895 9a11.884 11.884 0 0 1 1.054 4h-5.97a30.471 30.471 0 0 0-.38-4zm-1.168-2H21.19a16.063 16.063 0 0 0-1.772-4.497A12.031 12.031 0 0 1 25.727 9zM12.02 15a27.884 27.884 0 0 1 .403-4h7.152a27.884 27.884 0 0 1 .402 4zm7.957 2a27.884 27.884 0 0 1-.402 4h-7.152a27.884 27.884 0 0 1-.402-4zM16 4c.887 0 2.241 1.807 3.123 5h-6.247C13.76 5.807 15.114 4 16 4zm-3.419.503A16.063 16.063 0 0 0 10.81 9H6.273a12.031 12.031 0 0 1 6.308-4.497zM5.106 11H10.4a30.471 30.471 0 0 0-.38 4H4.05a11.884 11.884 0 0 1 1.054-4zm0 10a11.884 11.884 0 0 1-1.055-4h5.97a30.471 30.471 0 0 0 .38 4zm1.167 2h4.536a16.063 16.063 0 0 0 1.772 4.497A12.031 12.031 0 0 1 6.273 23zM16 28c-.887 0-2.241-1.807-3.123-5h6.247c-.883 3.193-2.236 5-3.124 5zm3.419-.503A16.063 16.063 0 0 0 21.19 23h4.536a12.031 12.031 0 0 1-6.308 4.497zM26.895 21h-5.296a30.471 30.471 0 0 0 .38-4h5.97a11.884 11.884 0 0 1-1.055 4z" fill="#333"/><path fill="none" d="M0 0h32v32H0z"/></svg>