<svg xmlns="http://www.w3.org/2000/svg" viewBox="0 0 32 32"><title>rexicon-32-eye-ban-l</title><path fill="none" d="M0 0h32v32H0z"/><path d="M24.5 23.087A18.85 18.85 0 0 0 30 16S26 6 16 6a13.552 13.552 0 0 0-6.801 1.785L3.21 1.796 1.797 3.212 7.5 8.913A18.85 18.85 0 0 0 2 16s4 10 14 10a13.552 13.552 0 0 0 6.801-1.784l5.987 5.987 1.415-1.414zM16 24c-7.102 0-10.72-5.876-11.797-8a16.433 16.433 0 0 1 4.72-5.664l2.908 2.91a4.995 4.995 0 0 0 6.923 6.922l2.57 2.57A11.652 11.652 0 0 1 16 24zm1.285-5.3A2.966 2.966 0 0 1 16 19a3.003 3.003 0 0 1-3-3 2.966 2.966 0 0 1 .3-1.285zm-2.57-5.399A2.967 2.967 0 0 1 16 13a3.003 3.003 0 0 1 3 3 2.967 2.967 0 0 1-.3 1.285l-1.993-1.992zm5.454 5.454a4.995 4.995 0 0 0-6.923-6.923l-2.57-2.57A11.652 11.652 0 0 1 16 8c7.102 0 10.72 5.876 11.797 8a16.433 16.433 0 0 1-4.72 5.664z" fill="#333"/></svg>