<svg xmlns="http://www.w3.org/2000/svg" viewBox="0 0 32 32"><title>rexicon-32-rss-text-l</title><g fill="#333"><path d="M7.717 17.666H9.31l1.863 3.156.015.025h2.172L10.924 17.1l.082-.04a2.677 2.677 0 0 0 1.457-2.645 3.325 3.325 0 0 0-3.451-3.263H6v9.694h1.717zm0-4.92h1.295a1.665 1.665 0 0 1 0 3.328H7.717z"/><path d="M16.022 19.42a2.997 2.997 0 0 1-2.198-1.119l-.037-.043-1.06 1.173.028.032A4.176 4.176 0 0 0 16.01 21c2.013 0 3.42-1.166 3.42-2.836 0-1.465-.79-2.328-2.725-2.977l-.016.047.015-.048a9.494 9.494 0 0 1-1.359-.498 1.01 1.01 0 0 1-.616-.913 1.283 1.283 0 0 1 1.38-1.194 2.385 2.385 0 0 1 1.723.776l.038.039 1.085-1.254-.035-.032A4.011 4.011 0 0 0 16.096 11a2.941 2.941 0 0 0-3.196 2.775c0 1.401.809 2.201 2.885 2.852a5.128 5.128 0 0 1 1.193.454 1.119 1.119 0 0 1 .634 1.095c0 .756-.624 1.244-1.59 1.244z"/><path d="M22.356 16.627a5.128 5.128 0 0 1 1.193.454 1.119 1.119 0 0 1 .634 1.095c0 .756-.624 1.244-1.59 1.244a2.997 2.997 0 0 1-2.198-1.119l-.037-.043-1.06 1.173.028.032A4.176 4.176 0 0 0 22.581 21C24.594 21 26 19.834 26 18.164c0-1.465-.789-2.328-2.724-2.977l-.016.047.015-.048a9.494 9.494 0 0 1-1.359-.498 1.01 1.01 0 0 1-.616-.913 1.283 1.283 0 0 1 1.38-1.194 2.385 2.385 0 0 1 1.723.776l.038.039 1.085-1.254-.034-.032A4.011 4.011 0 0 0 22.667 11a2.941 2.941 0 0 0-3.196 2.775c0 1.401.809 2.201 2.885 2.852z"/><path d="M28 6H4a2 2 0 0 0-2 2v16a2 2 0 0 0 2 2h24a2 2 0 0 0 2-2V8a2 2 0 0 0-2-2zm0 18H4V8h24z"/></g><path fill="none" d="M0 0h32v32H0z"/></svg>