<svg id="Layer_1" xmlns="http://www.w3.org/2000/svg" viewBox="0 0 32 32"><style>.st0{fill:#333}</style><path class="st0" d="M29.7 25.7c-.5-1-2.7-4.7-2.7-4.7s-2.2 3.7-2.7 4.7c-.7 1.5-.1 3.3 1.4 4 1.5.7 3.3.1 4-1.4.4-.8.4-1.8 0-2.6zm-2.3 2.2c-.5.2-1.1 0-1.3-.5-.1-.3-.1-.6 0-.9.1-.3.5-.9.9-1.6.4.7.8 1.3.9 1.6.2.6 0 1.2-.5 1.4zM16 3l-2.1 2.1-2-2c-1.4-1.4-3.6-1.4-5 0C5.7 4.4 5.7 6.6 7 8l2 2-5 5c-1.6 1.6-1.6 4.1 0 5.7l6.3 6.3c1.6 1.6 4.1 1.6 5.7 0l12-12L16 3zM8.4 6.6c-.6-.6-.6-1.6 0-2.2s1.5-.6 2.1 0l2 2-2.1 2.1-2-1.9zm6.2 19c-.8.8-2 .8-2.8 0l-6.3-6.3c-.8-.8-.8-2 0-2.8l5-5 2.1 2.1c0 .2-.1.3-.1.5 0 1.1.9 2 2 2s2-.9 2-2-.9-2-2-2c-.2 0-.4 0-.5.1L11.9 10 16 5.8l9.2 9.2-10.6 10.6z"/></svg>