<svg xmlns="http://www.w3.org/2000/svg" viewBox="0 0 32 32"><title>rexicon-32-settings-l</title><path fill="none" d="M0 0h32v32H0z"/><g fill="#333"><path d="M28 13h-.91a11.42 11.42 0 0 0-1.125-2.723l.641-.641a2.006 2.006 0 0 0 0-2.828l-1.414-1.415a2.006 2.006 0 0 0-2.828 0l-.641.641A11.414 11.414 0 0 0 19 4.91V4a2.006 2.006 0 0 0-2-2h-2a2.006 2.006 0 0 0-2 2v.91a11.414 11.414 0 0 0-2.723 1.124l-.64-.64a2.006 2.006 0 0 0-2.83 0L5.395 6.807a2.006 2.006 0 0 0 0 2.828l.64.641A11.42 11.42 0 0 0 4.91 13H4a2.006 2.006 0 0 0-2 2v2a2.006 2.006 0 0 0 2 2h.91a11.42 11.42 0 0 0 1.125 2.723l-.641.641a2.006 2.006 0 0 0 0 2.828l1.414 1.414a2.006 2.006 0 0 0 2.828 0l.641-.64A11.405 11.405 0 0 0 13 27.09V28a2.006 2.006 0 0 0 2 2h2a2.006 2.006 0 0 0 2-2v-.91a11.405 11.405 0 0 0 2.723-1.125l.64.641a2.006 2.006 0 0 0 2.83 0l1.413-1.414a2.006 2.006 0 0 0 0-2.828l-.64-.641A11.42 11.42 0 0 0 27.09 19H28a2.006 2.006 0 0 0 2-2v-2a2.006 2.006 0 0 0-2-2zm0 4h-2.44l-.4 1.479a9.425 9.425 0 0 1-.928 2.246l-.764 1.328 1.083 1.084.641.641-1.414 1.414-.641-.641-1.084-1.084-1.329.765a9.42 9.42 0 0 1-2.245.928l-1.479.4V28h-2v-2.44l-1.479-.4a9.42 9.42 0 0 1-2.245-.928l-1.329-.765-1.084 1.084-.641.641-1.414-1.414.64-.64 1.084-1.085-.764-1.328a9.425 9.425 0 0 1-.928-2.246L6.44 17H4v-2h2.44l.4-1.479a9.425 9.425 0 0 1 .928-2.246l.764-1.329L7.45 8.864l-.641-.641 1.414-1.414.641.64 1.084 1.084 1.328-.764a9.421 9.421 0 0 1 2.246-.928L15 6.44V4h2v2.44l1.479.4a9.421 9.421 0 0 1 2.246.928l1.328.764 1.084-1.083.641-.642 1.414 1.415-.64.64-1.084 1.085.764 1.328a9.425 9.425 0 0 1 .928 2.246l.4 1.479H28z"/><path d="M16 9.5a6.5 6.5 0 1 0 6.5 6.5A6.5 6.5 0 0 0 16 9.5zm0 11a4.5 4.5 0 1 1 4.5-4.5 4.505 4.505 0 0 1-4.5 4.5z"/></g></svg>