<svg xmlns="http://www.w3.org/2000/svg" viewBox="0 0 32 32"><title>rexicon-32-shop-l</title><g fill="#333"><path d="M16 19a4 4 0 0 0-4 4v6h8v-6a4 4 0 0 0-4-4zm2 8h-4v-4a2 2 0 0 1 4 0z"/><path d="M25.693 4H6.307L3 12.819V13a3.996 3.996 0 0 0 3 3.858V27a2 2 0 0 0 2 2h2v-2H8V16.86a4 4 0 0 0 2-1.217 3.995 3.995 0 0 0 6 0 3.995 3.995 0 0 0 6 0 4 4 0 0 0 2 1.218V27h-2v2h2a2 2 0 0 0 2-2V16.858A3.996 3.996 0 0 0 29 13v-.181zM25 15a2.002 2.002 0 0 1-2-2h-2a2 2 0 0 1-4 0h-2a2 2 0 0 1-4 0H9a2 2 0 0 1-3.993.164L7.693 6h16.614l2.686 7.164A2.002 2.002 0 0 1 25 15z"/></g><path fill="none" d="M0 0h32v32H0z"/></svg>