<svg xmlns="http://www.w3.org/2000/svg" viewBox="0 0 32 32"><title>rexicon-32-car-l</title><g fill="#333"><circle cx="7.5" cy="19.5" r="1.5"/><circle cx="24.5" cy="19.5" r="1.5"/><path d="M29.664 15.496l-1.07-1.605a1.986 1.986 0 0 0-.929-.735l-1.366-7.514A2 2 0 0 0 24.33 4H7.669a2 2 0 0 0-1.968 1.642l-1.366 7.514a1.986 1.986 0 0 0-.929.734l-1.07 1.606A2 2 0 0 0 2 16.606V24a2 2 0 0 0 2 2v2a2 2 0 0 0 2 2h1a2 2 0 0 0 2-2v-2h14v2a2 2 0 0 0 2 2h1a2 2 0 0 0 2-2v-2a2 2 0 0 0 2-2v-7.395a2 2 0 0 0-.336-1.109zM7.67 6h16.662l1.273 7H6.396zM18 24h-4v-2h4zm10 0h-8v-4h-8v4H4v-7.395L5.07 15h21.86L28 16.605z"/></g><path fill="none" d="M0 0h32v32H0z"/></svg>