<svg xmlns="http://www.w3.org/2000/svg" viewBox="0 0 32 32"><title>rexicon-32-domestic-area-l</title><g fill="#333"><path d="M28 2h-5a2 2 0 0 0-2 2v4h9V4a2 2 0 0 0-2-2zm0 4h-5V4h5zm-7 10h-8v6h10v8h5a2 2 0 0 0 2-2V10h-9zm2-4h5v16h-3v-8H15v-2h8z"/><path d="M13 28a2 2 0 0 0 2 2h6v-6h-8zm2-2h4v2h-4zM2 21a2 2 0 0 0 2 2h1v5a2 2 0 0 0 2 2h2a2 2 0 0 0 2-2V16H2zm2-3h5v10H7v-7H4zM8 4a2 2 0 0 0-2-2H4a2 2 0 0 0-2 2v4h6zM6 6H4V4h2z"/><path d="M10 10H2v2h10V2h-2v8z"/></g><path fill="none" d="M0 0h32v32H0z"/></svg>