<svg xmlns="http://www.w3.org/2000/svg" viewBox="0 0 32 32"><title>rexicon-32-favorite-l</title><path fill="none" d="M0 0h32v32H0z"/><path d="M28.052 12.05l-7.749-1.065L17 3.647a1.094 1.094 0 0 0-1.997 0l-3.305 7.338L3.95 12.05a1.1 1.1 0 0 0-.625 1.87l5.714 5.703-1.432 8.083A1.1 1.1 0 0 0 8.686 29a1.087 1.087 0 0 0 .544-.148L16 24.96l6.77 3.892a1.087 1.087 0 0 0 .545.148 1.1 1.1 0 0 0 1.08-1.295l-1.432-8.083 5.713-5.704a1.1 1.1 0 0 0-.624-1.868zm-6.502 6.157l-.738.737.182 1.027 1.095 6.182-5.092-2.927-.997-.573-.997.573-5.091 2.927 1.095-6.182.182-1.027-.738-.737-4.431-4.423 5.95-.818 1.096-.15.455-1.01L16 6.3l2.48 5.506.455 1.01 1.096.15 5.95.818z" fill="#333"/></svg>