<svg xmlns="http://www.w3.org/2000/svg" viewBox="0 0 32 32"><title>Artboard 109</title><path fill="none" d="M0 0h32v32H0z"/><g fill="#333"><path d="M4 11a6.998 6.998 0 0 1 13.48-2.639 11.9 11.9 0 0 1 2.038-.25A8.996 8.996 0 1 0 8.111 19.518a11.9 11.9 0 0 1 .25-2.038A7.008 7.008 0 0 1 4 11z"/><path d="M7 13.92a9.004 9.004 0 0 0 2.12 1.25 11.898 11.898 0 0 1 .939-1.718 6.91 6.91 0 0 1-1.804-1.042zm3.479-5.466c.785-.33 1.888-.001 3.025.908l1.27-1.498a6.464 6.464 0 0 0-2.785-1.381V5H10v1.564a3.43 3.43 0 0 0-.412.155 2.765 2.765 0 0 0-1.73 2.345c0 2.05 1.924 2.63 3.287 2.997a11.988 11.988 0 0 1 1.668-1.538c-.339-.115-.68-.208-.995-.292-1.577-.421-1.962-.65-1.962-1.166a1.013 1.013 0 0 1 .624-.61zM20 10.087A9.913 9.913 0 1 0 29.913 20 9.913 9.913 0 0 0 20 10.087zm0 17.826A7.913 7.913 0 1 1 27.913 20 7.922 7.922 0 0 1 20 27.913z"/><path d="M22.691 14.472L20 18.623l-2.691-4.151H15l2.871 4.5H15v1.5h3.828l.172.269v1.231h-4v1.5h4v3h2v-3h4v-1.5h-4v-1.231l.172-.269H25v-1.5h-2.871l2.871-4.5h-2.309z"/></g></svg>