<svg xmlns="http://www.w3.org/2000/svg" viewBox="0 0 32 32"><title>rexicon-32-shop-f</title><g fill="#333"><path d="M22.01 17.189a5.987 5.987 0 0 1-6.01.005 5.987 5.987 0 0 1-6.01-.005A5.834 5.834 0 0 1 6 17.91V27a2 2 0 0 0 2 2h3.5v-4.5a4.5 4.5 0 0 1 9 0V29H24a2 2 0 0 0 2-2v-9.09a5.834 5.834 0 0 1-3.99-.72z"/><path d="M16 22a2.5 2.5 0 0 0-2.5 2.5V29h5v-4.5A2.5 2.5 0 0 0 16 22zm9.693-18H6.307L3 12a3.986 3.986 0 0 0 6.967 2.66c.009-.007.026-.01.033-.018a3.994 3.994 0 0 0 6 0 3.994 3.994 0 0 0 6 0c.006.008.024.011.033.018A3.986 3.986 0 0 0 29 12z"/></g><path fill="none" d="M0 0h32v32H0z"/></svg>