<svg xmlns="http://www.w3.org/2000/svg" viewBox="0 0 32 32"><title>rexicon-32-close-account-f</title><path fill="none" d="M0 0h32v32H0z"/><g fill="#333"><path d="M24 18a6 6 0 1 0 6 6 6 6 0 0 0-6-6zm0 10a3.996 3.996 0 0 1-3.858-3h7.716A3.996 3.996 0 0 1 24 28zm-3.858-5a3.98 3.98 0 0 1 7.716 0z"/><path d="M16 24a7.994 7.994 0 0 1 3.77-6.778 35.69 35.69 0 0 0-2.624-1.61.989.989 0 0 1-.23-1.548C18.306 12.584 19 11.334 19 8a5.764 5.764 0 0 0-6.002-6A5.764 5.764 0 0 0 7 8c0 3.333.695 4.583 2.083 6.065a.99.99 0 0 1-.23 1.547A24.283 24.283 0 0 0 4 19c-1.675 1.675-1.947 5.457-1.992 8.991A1.985 1.985 0 0 0 3.996 30h14.73A7.976 7.976 0 0 1 16 24z"/></g></svg>