<svg xmlns="http://www.w3.org/2000/svg" viewBox="0 0 32 32"><title>rexicon-32-train-l</title><g fill="#333"><path d="M25 2H7a2 2 0 0 0-2 2v16.12a2 2 0 0 0 .649 1.474L7.4 23.2a1.998 1.998 0 0 0 1.576.797L6 29.967h2.235L9.215 28h13.57l.98 1.967H26l-2.976-5.97A1.998 1.998 0 0 0 24.6 23.2l1.752-1.605A2 2 0 0 0 27 20.12V4a2 2 0 0 0-2-2zM7 8h8v5H7zm3.212 18l.998-2h9.58l.998 2zM25 20.12l-1.752 1.605-.137.126L23 22H9l-.112-.149-.137-.125L7 20.12V15h18zM25 13h-8V8h8zm0-7H7V4h18z"/><circle cx="10.5" cy="18.5" r="1.5"/><circle cx="21.5" cy="18.5" r="1.5"/></g><path fill="none" d="M0 0h32v32H0z"/></svg>