<svg xmlns="http://www.w3.org/2000/svg" viewBox="0 0 32 32"><title>rexicon-32-walking-f</title><g fill="#333"><circle cx="15" cy="5" r="3"/><path d="M7.004 27v3c3.556 0 7.211-2.206 7.88-5.957l-2.882-1.235c0 2.624-2.541 4.192-4.998 4.192z"/><path d="M19.965 16.085A9.88 9.88 0 0 0 27 19v-3a6.902 6.902 0 0 1-4.914-2.036l-2.94-2.939A3.477 3.477 0 0 0 16.672 10h-2.946a3.491 3.491 0 0 0-.97.137l-1.386.4A8.848 8.848 0 0 0 5 19h3a5.827 5.827 0 0 1 4-5.505v7.137l3.935 1.686.344.179A8.333 8.333 0 0 1 21 30h3a11.342 11.342 0 0 0-6-10.01v-5.869z"/></g><path fill="none" d="M0 0h32v32H0z"/></svg>