<svg xmlns="http://www.w3.org/2000/svg" viewBox="0 0 32 32"><title>rexicon-32-like-l</title><path d="M5 14H2v2h3v12H2v2h3a2 2 0 0 0 2-2V16a2 2 0 0 0-2-2zm23 0h-8s2-6 2-8V5a2.937 2.937 0 0 0-2.5-3H18c-.529 0-1 1-1 1l-2 4-5.414 6.414A2 2 0 0 0 9 14.828V26a4 4 0 0 0 4 4h10.172a2 2 0 0 0 1.414-.586l4.828-4.828A2 2 0 0 0 30 23.172V16a2 2 0 0 0-2-2zm0 9.172L23.172 28H13a2.002 2.002 0 0 1-2-2V14.829l.06-.06.054-.065 5.414-6.414.154-.182.107-.214L18.736 4h.655A1.05 1.05 0 0 1 20 5v1a41.183 41.183 0 0 1-1.897 7.368L17.226 16H28z" fill="#333"/><path fill="none" d="M0 0h32v32H0z"/></svg>