<svg xmlns="http://www.w3.org/2000/svg" viewBox="0 0 32 32"><title>rexicon-32-mobile-phone-l</title><g fill="#333"><path d="M22 5H11V3a1 1 0 0 0-2 0v2.185A3.002 3.002 0 0 0 7 8v19a3 3 0 0 0 3 3h12a3 3 0 0 0 3-3V8a3.009 3.009 0 0 0-3-3zm1 22a1.001 1.001 0 0 1-1 1H10a1.001 1.001 0 0 1-1-1V8a1.013 1.013 0 0 1 1-1h12a1.013 1.013 0 0 1 1 1z" fill-rule="evenodd"/><path d="M11 18h10V9H11zm2-7h6v5h-6z" fill-rule="evenodd"/><path d="M11 20h2v2h-2zm4 0h2v2h-2zm-4 4h2v2h-2zm4 0h2v2h-2zm4-4h2v2h-2zm0 4h2v2h-2z"/></g><path fill="none" d="M0 0h32v32H0z"/></svg>