<svg xmlns="http://www.w3.org/2000/svg" viewBox="0 0 32 32"><title>rexicon-32-settings-f</title><path fill="none" d="M0 0h32v32H0z"/><path d="M28 13h-.91a11.42 11.42 0 0 0-1.125-2.723l.641-.641a2.006 2.006 0 0 0 0-2.828l-1.414-1.415a2.006 2.006 0 0 0-2.828 0l-.641.641A11.414 11.414 0 0 0 19 4.91V4a2.006 2.006 0 0 0-2-2h-2a2.006 2.006 0 0 0-2 2v.91a11.414 11.414 0 0 0-2.723 1.124l-.64-.64a2.006 2.006 0 0 0-2.83 0L5.395 6.807a2.006 2.006 0 0 0 0 2.828l.64.641A11.42 11.42 0 0 0 4.91 13H4a2.006 2.006 0 0 0-2 2v2a2.006 2.006 0 0 0 2 2h.91a11.42 11.42 0 0 0 1.125 2.723l-.641.641a2.006 2.006 0 0 0 0 2.828l1.414 1.415a2.006 2.006 0 0 0 2.828 0l.641-.641A11.405 11.405 0 0 0 13 27.09V28a2.006 2.006 0 0 0 2 2h2a2.006 2.006 0 0 0 2-2v-.91a11.405 11.405 0 0 0 2.723-1.125l.64.641a2.006 2.006 0 0 0 2.83 0l1.413-1.414a2.006 2.006 0 0 0 0-2.828l-.64-.641A11.42 11.42 0 0 0 27.09 19H28a2.006 2.006 0 0 0 2-2v-2a2.006 2.006 0 0 0-2-2zm-12 9a6 6 0 1 1 6-6 6 6 0 0 1-6 6z" fill="#333" fill-rule="evenodd"/></svg>