<svg xmlns="http://www.w3.org/2000/svg" viewBox="0 0 32 32"><title>rexicon-32-share-l</title><path fill="none" d="M0 0h32v32H0z"/><path d="M24.5 20a4.48 4.48 0 0 0-3.604 1.83l-9.103-4.551a4.055 4.055 0 0 0 0-2.557l9.103-4.552a4.523 4.523 0 1 0-.811-1.83l-9.273 4.636a4.5 4.5 0 1 0 0 6.049l9.273 4.635A4.497 4.497 0 1 0 24.5 20zm0-15A2.5 2.5 0 1 1 22 7.5 2.503 2.503 0 0 1 24.5 5zm-17 13.5A2.5 2.5 0 1 1 10 16a2.503 2.503 0 0 1-2.5 2.5zm17 8.5a2.5 2.5 0 1 1 2.5-2.5 2.503 2.503 0 0 1-2.5 2.5z" fill="#333"/></svg>