<svg xmlns="http://www.w3.org/2000/svg" viewBox="0 0 32 32"><title>rexicon-32-close-account-l</title><path fill="none" d="M0 0h32v32H0z"/><g fill="#333"><path d="M24 18a6 6 0 1 0 6 6 6 6 0 0 0-6-6zm0 10a3.996 3.996 0 0 1-3.858-3h7.716A3.996 3.996 0 0 1 24 28zm-3.858-5a3.98 3.98 0 0 1 7.716 0z"/><path d="M4.008 28.016c.02-1.552.079-6.274 1.406-7.602a21.436 21.436 0 0 1 4.413-3.054 2.99 2.99 0 0 0 .716-4.663C9.556 11.646 9 10.91 9 8a3.757 3.757 0 0 1 3.998-4A3.759 3.759 0 0 1 17 8c0 2.91-.557 3.646-1.543 4.697a2.99 2.99 0 0 0 .717 4.663 34.91 34.91 0 0 1 1.986 1.19 8.032 8.032 0 0 1 1.61-1.328 35.587 35.587 0 0 0-2.624-1.61.99.99 0 0 1-.23-1.548C18.306 12.584 19 11.334 19 8a5.764 5.764 0 0 0-6.002-6A5.764 5.764 0 0 0 7 8c0 3.333.695 4.583 2.083 6.065a.99.99 0 0 1-.23 1.547A24.283 24.283 0 0 0 4 19c-1.675 1.675-1.947 5.457-1.992 8.991A1.985 1.985 0 0 0 3.996 30h14.73a8.044 8.044 0 0 1-1.64-1.996z"/></g></svg>