<svg xmlns="http://www.w3.org/2000/svg" viewBox="0 0 32 32"><title>rexicon-32-train-f</title><path d="M25 2H7a2 2 0 0 0-2 2v15.333a2 2 0 0 0 .4 1.2l2 2.667a1.998 1.998 0 0 0 1.576.797L6 29.967h2.235L9.215 28h13.57l.98 1.967H26l-2.976-5.97A1.998 1.998 0 0 0 24.6 23.2l2-2.667a2 2 0 0 0 .4-1.2V4a2 2 0 0 0-2-2zM7 13V7h8v6zm2 5.5a1.5 1.5 0 1 1 1.5 1.5A1.504 1.504 0 0 1 9 18.5zm1.212 7.5l.998-2h9.58l.998 2zM21.5 20a1.5 1.5 0 1 1 1.5-1.5 1.504 1.504 0 0 1-1.5 1.5zm3.5-7h-8V7h8z" fill="#333"/><path fill="none" d="M0 0h32v32H0z"/></svg>