<svg xmlns="http://www.w3.org/2000/svg" viewBox="0 0 32 32"><title>rexicon-32-building-f</title><g fill="#333"><path d="M16 25a2.503 2.503 0 0 0-2.5 2.5V30h5v-2.5A2.503 2.503 0 0 0 16 25z"/><path d="M25 2H7a2.006 2.006 0 0 0-2 2v24a2.006 2.006 0 0 0 2 2h4.5v-2.5a4.5 4.5 0 0 1 9 0V30H25a2.006 2.006 0 0 0 2-2V4a2.006 2.006 0 0 0-2-2zM12 20h-2v-3h2zm0-5h-2v-3h2zm0-5h-2V7h2zm5 10h-2v-3h2zm0-5h-2v-3h2zm0-5h-2V7h2zm5 10h-2v-3h2zm0-5h-2v-3h2zm0-5h-2V7h2z"/></g><path fill="none" d="M0 0h32v32H0z"/></svg>