<svg xmlns="http://www.w3.org/2000/svg" viewBox="0 0 32 32"><title>rexicon-32-campaign-l</title><path fill="none" d="M0 0h32v32H0z"/><path d="M13.207 5.574A1.925 1.925 0 0 0 11.835 5a1.947 1.947 0 0 0-1.842 1.295L4.516 20.959l-1.882 1.888a2.178 2.178 0 0 0 0 3.072l3.432 3.445a2.159 2.159 0 0 0 3.06 0l1.882-1.888 1.13-.416.344.956a2.995 2.995 0 0 0 3.858 1.8l3.177-1.168a3.01 3.01 0 0 0 1.787-3.832l-.358-.994 4.764-1.752a1.962 1.962 0 0 0 .718-3.228zm-5.494 22.37a.164.164 0 0 1-.233 0L4.048 24.5a.166.166 0 0 1 0-.234l1.174-1.178 3.665 3.678zm11.113-1.174l-3.176 1.17a1 1 0 0 1-1.287-.601l-.348-.968 5.052-1.858.353.981a1.003 1.003 0 0 1-.594 1.277zm-8.342-1.24l-4.03-4.044 5.392-14.439 13.114 13.16zM18.005 2h2v4.998h-2zm6.997 9.995H30v2h-4.998zM22.296 8.29l3.998-3.998 1.414 1.414-3.998 3.998z" fill="#333"/></svg>