<svg xmlns="http://www.w3.org/2000/svg" viewBox="0 0 32 32"><title>rexicon-32-phone-l</title><path d="M29.35 23.892l-4.62-4.622a2.216 2.216 0 0 0-3.134 0l-2.39 2.39a1.107 1.107 0 0 1-.783.327 1.093 1.093 0 0 1-.416-.082 15.496 15.496 0 0 1-4.85-3.061 15.496 15.496 0 0 1-3.06-4.85 1.1 1.1 0 0 1 .244-1.199l2.39-2.39a2.216 2.216 0 0 0 0-3.134L8.108 2.65a2.216 2.216 0 0 0-3.134 0L2.649 4.974A2.222 2.222 0 0 0 2.001 6.6a22.612 22.612 0 0 0 6.652 16.746A22.612 22.612 0 0 0 25.4 29.999l.052.001a2.221 2.221 0 0 0 1.575-.65l2.325-2.324a2.216 2.216 0 0 0 0-3.134zm-1.413 1.72l-2.325 2.325a.227.227 0 0 1-.167.063l-.275-.006a20.573 20.573 0 0 1-15.102-6.062A20.573 20.573 0 0 1 4.006 6.831L4 6.555a.225.225 0 0 1 .063-.167l2.325-2.325a.216.216 0 0 1 .306 0l4.622 4.623a.216.216 0 0 1 0 .305l-2.39 2.39a3.096 3.096 0 0 0-.68 3.372 17.471 17.471 0 0 0 3.496 5.505 17.468 17.468 0 0 0 5.505 3.497 3.098 3.098 0 0 0 3.372-.68l2.39-2.39a.216.216 0 0 1 .305 0l4.623 4.621a.216.216 0 0 1 0 .306z" fill="#333"/><path fill="none" d="M0 0h32v32H0z"/></svg>