<svg xmlns="http://www.w3.org/2000/svg" viewBox="0 0 32 32"><title>rexicon-32-my-page-l</title><g fill="#333"><path d="M29.038 24a13.994 13.994 0 0 0-4.339-2.739.493.493 0 0 1-.17-.793c1.208-1.31 1.495-2.229 1.495-4.968 0-3.5-2.01-5.5-5.024-5.5-3.014 0-5.023 2-5.023 5.5 0 2.66.287 3.641 1.5 4.97a.493.493 0 0 1-.173.79A14.002 14.002 0 0 0 12.963 24c-.648.645-.878 2.294-.96 3.882A2.007 2.007 0 0 0 14.006 30h13.988a2.007 2.007 0 0 0 2.003-2.117c-.081-1.59-.31-3.238-.959-3.883zM14 27.985a7.263 7.263 0 0 1 .422-2.615 12.338 12.338 0 0 1 3.645-2.26 2.493 2.493 0 0 0 .887-3.987c-.726-.796-.977-1.195-.977-3.623 0-1.596.524-3.5 3.022-3.5s3.025 1.904 3.025 3.5c0 2.456-.216 2.8-.966 3.614a2.493 2.493 0 0 0 .878 3.997 12.328 12.328 0 0 1 3.642 2.259 7.271 7.271 0 0 1 .416 2.63zM6 7h11v2H6zm0 4h8v2H6zm0 4h5v2H6z"/><path d="M4 4h16v4h2V4a2 2 0 0 0-2-2H4a2 2 0 0 0-2 2v18a2 2 0 0 0 2 2h6v-2H4z"/></g><path fill="none" d="M0 0h32v32H0z"/></svg>