<svg xmlns="http://www.w3.org/2000/svg" viewBox="0 0 32 32"><title>rexicon-32-heart-l</title><path d="M22.6 3.07a7.518 7.518 0 0 0-6.5 3.623 7.525 7.525 0 0 0-14.041 3.741C1.955 20.184 15.86 29 15.86 29s14.092-8.517 14.196-18.266A7.561 7.561 0 0 0 22.6 3.07zm-1.003 18.95a46.061 46.061 0 0 1-5.71 4.576 46.058 46.058 0 0 1-5.611-4.696c-2.862-2.838-6.264-7.128-6.217-11.444a5.567 5.567 0 0 1 5.597-5.524 5.488 5.488 0 0 1 4.715 2.767l1.687 2.898 1.748-2.862A5.488 5.488 0 0 1 22.58 5.07a5.567 5.567 0 0 1 5.478 5.642c-.046 4.316-3.538 8.532-6.46 11.308z" fill="#333"/><path fill="none" d="M0 0h32v32H0z"/></svg>