<svg xmlns="http://www.w3.org/2000/svg" viewBox="0 0 32 32"><title>rexicon-32-car-f</title><path d="M29.664 15.496l-1.07-1.605a1.986 1.986 0 0 0-.929-.735l-1.366-7.514A2 2 0 0 0 24.33 4H7.669a2 2 0 0 0-1.968 1.642l-1.366 7.514a1.986 1.986 0 0 0-.929.734l-1.07 1.606A2 2 0 0 0 2 16.606V24a2 2 0 0 0 2 2v2a2 2 0 0 0 2 2h1a2 2 0 0 0 2-2v-2h14v2a2 2 0 0 0 2 2h1a2 2 0 0 0 2-2v-2a2 2 0 0 0 2-2v-7.395a2 2 0 0 0-.336-1.109zM7.5 21A1.5 1.5 0 1 1 9 19.5 1.5 1.5 0 0 1 7.5 21zM19 24h-6v-3h6zM6.396 13L7.67 6h16.662l1.273 7zM24.5 21a1.5 1.5 0 1 1 1.5-1.5 1.5 1.5 0 0 1-1.5 1.5z" fill="#333"/><path fill="none" d="M0 0h32v32H0z"/></svg>