<svg xmlns="http://www.w3.org/2000/svg" viewBox="0 0 32 32"><title>rexicon-32-map-l</title><path fill="none" d="M0 0h32v32H0z"/><g fill="#333"><path d="M27.006 27.328l-5.696-1.92c-.101-.034-.206-.051-.31-.077v-4.518a48.157 48.157 0 0 1-2-2.23v6.772c-.124.034-.25.058-.372.104L13 27.596v-13.96c.114-.032.23-.053.34-.095l1.757-.666a12.654 12.654 0 0 1-.75-1.855l-1.716.651a1.98 1.98 0 0 1-1.277.044l-6.78-2.057a1.988 1.988 0 0 0-.579-.086A2.013 2.013 0 0 0 2 11.595v13.978a2.02 2.02 0 0 0 1.425 1.937l7.93 2.405a1.978 1.978 0 0 0 1.276-.043l6.706-2.543a1.98 1.98 0 0 1 1.335-.025l5.696 1.92a1.985 1.985 0 0 0 .635.105A2.013 2.013 0 0 0 29 27.305V16.006a39.05 39.05 0 0 1-1.998 2.575zM11 27.715l-7-2.142-.006-14 6.78 2.056c.074.023.151.033.226.051z"/><path d="M30 9a7 7 0 0 0-14 0c0 4 7 11 7 11s7-7 7-11zm-7-5a5.006 5.006 0 0 1 5 5c0 1.814-2.594 5.396-5 8.085-2.406-2.689-5-6.27-5-8.085a5.006 5.006 0 0 1 5-5z"/><circle cx="23" cy="9" r="2.5"/></g></svg>