<svg xmlns="http://www.w3.org/2000/svg" viewBox="0 0 32 32"><title>rexicon-32-switch-language-l</title><path d="M8.736 16h3.528l.688 2H15l-3.095-9h-2.81L6 18h2.048zm1.764-5.129L11.576 14H9.424zM26 18v-2a7.391 7.391 0 0 1-3.304-.763A8.268 8.268 0 0 0 24.782 12H26v-2h-4V8h-2v2h-4v2h1.22a8.268 8.268 0 0 0 2.084 3.237A7.391 7.391 0 0 1 16 16v2a9.369 9.369 0 0 0 5-1.43A9.369 9.369 0 0 0 26 18zm-6.63-6h3.26A7.183 7.183 0 0 1 21 14.09 7.183 7.183 0 0 1 19.37 12z" fill="#333"/><path d="M28 2H4a2.006 2.006 0 0 0-2 2v19a2.006 2.006 0 0 0 2 2h7.5l4.5 5 4.5-5H28a2.006 2.006 0 0 0 2-2V4a2.006 2.006 0 0 0-2-2zm0 21h-8.39l-.597.662L16 27.01l-3.013-3.348L12.39 23H4V4h24z" fill="#333"/><path fill="none" d="M0 0h32v32H0z"/></svg>