<svg xmlns="http://www.w3.org/2000/svg" viewBox="0 0 32 32"><title>rexicon-32-rakuten-registration-l</title><path fill="none" d="M0 0h32v32H0z"/><path d="M17.146 15.612a.99.99 0 0 1-.23-1.547C18.306 12.583 19 11.333 19 8a5.764 5.764 0 0 0-6.002-6A5.764 5.764 0 0 0 7 8c0 3.333.695 4.583 2.083 6.065a.99.99 0 0 1-.23 1.547A24.279 24.279 0 0 0 4 19c-1.675 1.675-1.947 5.457-1.992 8.991A1.985 1.985 0 0 0 3.996 30h18.007a1.986 1.986 0 0 0 1.988-2.009C23.947 24.456 23.675 20.675 22 19a24.279 24.279 0 0 0-4.854-3.388zM4.008 28.016c.02-1.552.079-6.274 1.406-7.602a21.436 21.436 0 0 1 4.413-3.054 2.99 2.99 0 0 0 .716-4.663C9.556 11.646 9 10.91 9 8a3.757 3.757 0 0 1 3.998-4A3.759 3.759 0 0 1 17 8c0 2.91-.557 3.646-1.543 4.697a2.99 2.99 0 0 0 .717 4.663 21.442 21.442 0 0 1 4.412 3.054c1.327 1.328 1.386 6.05 1.417 7.586zM26 6V2h-2v4h-4v2h4v4h2V8h4V6h-4z" fill="#333"/></svg>