<svg xmlns="http://www.w3.org/2000/svg" viewBox="0 0 32 32"><title>rexicon-32-purchase-history-l</title><g fill="#333"><circle cx="7.5" cy="28.5" r="1.5"/><circle cx="14.5" cy="28.5" r="1.5"/><path d="M6 14H2v2h2.336l1.663 8.994L6 25h10l1-8H6.546zm8.734 5l-.5 4H7.636l-.727-4z"/><path d="M19 2A10.989 10.989 0 0 0 8.064 14.17l.15.83h2.018A8.996 8.996 0 1 1 19 22c-.204 0-.405-.017-.606-.03l-.248 1.987c.283.022.566.043.854.043a11 11 0 0 0 0-22z"/><path d="M17 8v7h8v-2h-6V8h-2z"/></g><path fill="none" d="M0 0h32v32H0z"/></svg>