<svg xmlns="http://www.w3.org/2000/svg" viewBox="0 0 32 32"><title>rexicon-32-server-f</title><g fill="#333"><path d="M3 22.132V25a2.496 2.496 0 0 0 .074.588c.004.017.012.033.017.05C3.786 28.272 8.793 30 16 30s12.214-1.728 12.91-4.362c.004-.017.012-.033.016-.05A2.496 2.496 0 0 0 29 25v-2.868A29.482 29.482 0 0 1 16 25a29.482 29.482 0 0 1-13-2.868zM16 2C9.54 2 3 3.717 3 7v5.84A27 27 0 0 0 16 16a27 27 0 0 0 13-3.16V7c0-3.283-6.54-5-13-5zm0 8C8.175 10 5.013 7.883 5.013 7 5.013 5.982 8.89 4 16 4s10.987 1.982 10.987 3c0 .883-3.162 3-10.987 3z"/><path d="M3 15.132v4.708A27 27 0 0 0 16 23a27 27 0 0 0 13-3.16v-4.708A29.482 29.482 0 0 1 16 18a29.482 29.482 0 0 1-13-2.868z"/></g><path fill="none" d="M0 0h32v32H0z"/></svg>