<svg xmlns="http://www.w3.org/2000/svg" viewBox="0 0 32 32"><title>rexicon-32-plane-l</title><path fill="none" d="M0 0h32v32H0z"/><path d="M29.294 2.706A2.298 2.298 0 0 0 27.612 2c-2.139 0-4.687 2.548-5.862 3.724L19.163 8.31 4.726 5.904a2.134 2.134 0 0 0-1.86.596l-.554.554a1.067 1.067 0 0 0 .175 1.65l9.886 6.396-3.147 3.147-3.657-.914a2.133 2.133 0 0 0-2.026.561l-.489.49a1.067 1.067 0 0 0 .163 1.641l3.271 2.182a3.187 3.187 0 0 0 3.19 3.315c.04 0 .077-.01.115-.01l2.181 3.271a1.067 1.067 0 0 0 1.643.163l.488-.49a2.134 2.134 0 0 0 .562-2.026l-.914-3.656 3.147-3.147 6.396 9.885a1.067 1.067 0 0 0 1.65.175l.554-.554a2.135 2.135 0 0 0 .596-1.86L23.69 12.838l2.586-2.587c1.51-1.508 5.282-5.28 3.018-7.544zm-7.019 8.717l-.727.728.169 1.015 2.296 13.772-5.434-8.397-1.344-2.077-1.75 1.749-4.958 4.958a1.2 1.2 0 1 1-1.698-1.698l4.958-4.958 1.749-1.75-2.077-1.344-8.397-5.433 13.772 2.295 1.015.17.728-.728 2.587-2.588C25.246 5.056 26.743 4 27.612 4a.313.313 0 0 1 .268.12c.142.142.663 1.035-3.018 4.716z" fill="#333"/></svg>