<svg xmlns="http://www.w3.org/2000/svg" viewBox="0 0 32 32"><title>rexicon-32-language-f</title><g fill="#333"><path d="M21.5 14.09A7.186 7.186 0 0 0 23.13 12h-3.26a7.186 7.186 0 0 0 1.63 2.09zM8.924 14h2.152L10 10.871 8.924 14z"/><path d="M28 2H4a2.006 2.006 0 0 0-2 2v19a2.006 2.006 0 0 0 2 2h7.5l4.5 5 4.5-5H28a2.006 2.006 0 0 0 2-2V4a2.006 2.006 0 0 0-2-2zM12.452 18l-.688-2H8.236l-.688 2H5.5l3.095-9h2.81l3.095 9zM26.5 12h-1.22a8.27 8.27 0 0 1-2.083 3.237A7.392 7.392 0 0 0 26.5 16v2a9.368 9.368 0 0 1-5-1.43 9.368 9.368 0 0 1-5 1.43v-2a7.392 7.392 0 0 0 3.304-.763A8.27 8.27 0 0 1 17.718 12H16.5v-2h4V8h2v2h4z"/></g><path fill="none" d="M0 0h32v32H0z"/></svg>