<svg xmlns="http://www.w3.org/2000/svg" viewBox="0 0 32 32"><title>rexicon-32-compare-l</title><g fill="#333"><path d="M11 8H9.408L7 15h1.593l.535-1.556h2.744L12.407 15H14l-2.408-7zm-1.337 3.889l.837-2.434.837 2.434z"/><path d="M25 3H7a4.012 4.012 0 0 0-4 4v18a4.012 4.012 0 0 0 4 4h18a4.012 4.012 0 0 0 4-4V7a4.012 4.012 0 0 0-4-4zm2 22a2.002 2.002 0 0 1-2 2H7a2.002 2.002 0 0 1-2-2V7a2.002 2.002 0 0 1 2-2h18a2.002 2.002 0 0 1 2 2z"/><path d="M24.5 12.99a1.55 1.55 0 0 0-1.386-1.584 1.479 1.479 0 0 0 1.044-1.44A1.981 1.981 0 0 0 22.096 8H18.5v7h3.938a1.922 1.922 0 0 0 2.062-2.01zm-4.445-3.435h1.963a.583.583 0 1 1 0 1.167h-1.963zm0 3.89v-1.167h2.306a.583.583 0 1 1 0 1.166zM7 18h7v2H7zm0 4h7v2H7zm11-4h7v2h-7zm0 4h7v2h-7z"/></g><path fill="none" d="M0 0h32v32H0z"/></svg>