<svg xmlns="http://www.w3.org/2000/svg" viewBox="0 0 32 32"><title>rexicon-32-server-l</title><path d="M16 2C9.54 2 3 3.717 3 7v18a2.496 2.496 0 0 0 .074.588c.004.017.012.033.017.05C3.786 28.272 8.793 30 16 30s12.214-1.728 12.91-4.362c.004-.017.012-.033.016-.05A2.496 2.496 0 0 0 29 25V7c0-3.283-6.54-5-13-5zm0 2c7.109 0 10.987 1.982 10.987 3 0 .883-3.162 3-10.987 3S5.013 7.883 5.013 7C5.013 5.982 8.89 4 16 4zm11 21h-.013a.51.51 0 0 1-.042.188.987.987 0 0 1-.054.096 1.01 1.01 0 0 1-.074.12c-.015.02-.036.041-.053.061C25.86 26.524 22.137 28 16 28s-9.858-1.476-10.764-2.534c-.017-.02-.038-.042-.053-.062a.972.972 0 0 1-.074-.12.945.945 0 0 1-.054-.096.51.51 0 0 1-.042-.188H5v-3.15C7.2 23.196 11.087 24 16 24s8.8-.804 11-2.15zm0-7v1h-.013c0 .883-3.161 3-10.987 3S5.013 19.883 5.013 19H5v-3.15C7.2 17.196 11.087 18 16 18s8.8-.804 11-2.15zm0-5h-.013c0 .883-3.161 3-10.987 3S5.013 13.883 5.013 13H5V9.85C7.2 11.196 11.087 12 16 12s8.8-.804 11-2.15z" fill="#333"/><path fill="none" d="M0 0h32v32H0z"/></svg>