<svg xmlns="http://www.w3.org/2000/svg" viewBox="0 0 32 32"><title>rexicon-32-search-history-l</title><g fill="#333"><path d="M17 8v7h8v-2h-6V8h-2zm-4 13.5a5.501 5.501 0 1 0-2.448 4.575L14.477 30 16 28.477l-3.925-3.925A5.474 5.474 0 0 0 13 21.5zM7.5 25a3.5 3.5 0 1 1 3.5-3.5A3.504 3.504 0 0 1 7.5 25z"/><path d="M19 2A11 11 0 0 0 8 13c0 .347.02.689.052 1.028a7.449 7.449 0 0 1 2.081.457 9.022 9.022 0 1 1 4.844 6.554c.01.153.023.305.023.46a7.506 7.506 0 0 1-.193 1.67A11 11 0 1 0 19 2z"/></g><path fill="none" d="M0 0h32v32H0z"/></svg>