<svg xmlns="http://www.w3.org/2000/svg" viewBox="0 0 32 32"><title>rexicon-32-chat-l</title><path fill="none" d="M0 0h32v32H0z"/><g fill="#333"><path d="M5.073 18.614l.863-2.956-.608-.803A6.35 6.35 0 0 1 4 11c0-3.86 3.589-7 8-7a8.144 8.144 0 0 1 7.237 4.035C19.49 8.021 19.742 8 20 8a13.118 13.118 0 0 1 1.455.09A9.97 9.97 0 0 0 12 2C6.477 2 2 6.03 2 11a8.342 8.342 0 0 0 1.734 5.064L2 22l6.032-2.418C8.021 19.388 8 19.196 8 19a10.094 10.094 0 0 1 .145-1.618zM19 18h2v2h-2zm-4 0h2v2h-2z"/><path d="M30 19c0-4.97-4.477-9-10-9s-10 4.03-10 9 4.477 9 10 9a10.94 10.94 0 0 0 3.537-.59L30 30l-1.734-5.936A8.342 8.342 0 0 0 30 19zm-3.654 5.624l.581 1.99-2.646-1.06-.688-.277-.701.24A8.94 8.94 0 0 1 20 26c-4.411 0-8-3.14-8-7s3.589-7 8-7 8 3.14 8 7a6.35 6.35 0 0 1-1.328 3.855l-.608.803z"/><path d="M23 18h2v2h-2z"/></g></svg>