<svg xmlns="http://www.w3.org/2000/svg" viewBox="0 0 32 32"><title>rexicon-32-cart-l</title><g fill="#333"><circle cx="11" cy="28" r="2"/><circle cx="25" cy="28" r="2"/><path d="M10.733 21.148L8.244 4.555A2.981 2.981 0 0 0 5.278 2H2v2h3.278a.994.994 0 0 1 .989.852l2.489 16.593A2.981 2.981 0 0 0 11.722 24H27v-2H11.722a.994.994 0 0 1-.989-.852z"/><path d="M10.34 5l.3 2h15.212l-.581 8.143A2.007 2.007 0 0 1 23.276 17H12.139l.3 2h10.837a4 4 0 0 0 3.99-3.715L28 5z"/></g><path fill="none" d="M0 0h32v32H0z"/></svg>