<svg xmlns="http://www.w3.org/2000/svg" viewBox="0 0 32 32"><title>rexicon-32-chat-f</title><g fill="#333"><path d="M20 8a13.118 13.118 0 0 1 1.455.09A9.97 9.97 0 0 0 12 2C6.477 2 2 6.03 2 11a8.342 8.342 0 0 0 1.734 5.064L2 22l6.032-2.418C8.021 19.388 8 19.196 8 19c0-6.065 5.383-11 12-11z"/><path d="M30 19c0-4.97-4.477-9-10-9s-10 4.03-10 9 4.477 9 10 9a10.94 10.94 0 0 0 3.537-.59L30 30l-1.734-5.936A8.342 8.342 0 0 0 30 19zm-13 1h-2v-2h2zm4 0h-2v-2h2zm4 0h-2v-2h2z"/></g><path fill="none" d="M0 0h32v32H0z"/></svg>