<svg xmlns="http://www.w3.org/2000/svg" viewBox="0 0 32 32"><title>rexicon-32-paint-l</title><path fill="none" d="M0 0h32v32H0z"/><path d="M29.706 25.703C29.222 24.695 27 21 27 21s-2.222 3.695-2.706 4.703a3 3 0 1 0 5.412 0zM27 28a1.001 1.001 0 0 1-1-1 .987.987 0 0 1 .097-.431c.139-.289.486-.908.903-1.632.417.724.764 1.343.903 1.632A.987.987 0 0 1 28 27a1.001 1.001 0 0 1-1 1zM16.1 3.018l-1.31 1.309-1.133-1.196a3.874 3.874 0 0 0-5.48 5.479l1.165 1.165-5.179 5.179a3.973 3.973 0 0 0 0 5.618l6.283 6.282a3.973 3.973 0 0 0 5.618 0L28 14.918zM9.591 4.545a1.872 1.872 0 0 1 2.632-.019l1.152 1.215-2.62 2.62-1.164-1.165a1.877 1.877 0 0 1 0-2.65zM14.65 25.44a1.973 1.973 0 0 1-2.79 0l-6.282-6.282a1.972 1.972 0 0 1 0-2.79l5.179-5.18 2.313 2.314a2.038 2.038 0 1 0 1.405-1.423L12.17 9.775l3.928-3.929 9.073 9.072z" fill="#333"/></svg>