<svg xmlns="http://www.w3.org/2000/svg" viewBox="0 0 32 32"><title>rexicon-32-laptop-l</title><g fill="#333"><path d="M9 19h2v2H9zm4 0h2v2h-2zm4 0h2v2h-2zm4 0h2v2h-2zm6-14a2 2 0 0 0-2-2H7a2 2 0 0 0-2 2v12h22zm-2 10H7V5h18z"/><path d="M28.941 26.515L27.408 19h-2.041l1.615 7.915.003.076.002.009H21v-4H11v4H4.994a.021.021 0 0 0 .009-.015l.008-.035.007-.035L6.633 19H4.592l-1.533 7.515A1.986 1.986 0 0 0 4.936 29h22.128a1.986 1.986 0 0 0 1.877-2.485zM19 27h-6v-2h6z"/></g><path fill="none" d="M0 0h32v32H0z"/></svg>