<svg xmlns="http://www.w3.org/2000/svg" viewBox="0 0 32 32"><title>rexicon-32-phone-f</title><path d="M29.35 23.892l-4.62-4.622a2.216 2.216 0 0 0-3.134 0l-2.39 2.39a1.1 1.1 0 0 1-1.199.245 15.496 15.496 0 0 1-4.85-3.061 15.495 15.495 0 0 1-3.06-4.85 1.1 1.1 0 0 1 .244-1.199l2.39-2.39a2.216 2.216 0 0 0 0-3.134L8.108 2.65a2.216 2.216 0 0 0-3.134 0L2.649 4.974A2.222 2.222 0 0 0 2.001 6.6a22.612 22.612 0 0 0 6.652 16.746A22.612 22.612 0 0 0 25.4 29.999a2.222 2.222 0 0 0 1.627-.648l2.325-2.325a2.216 2.216 0 0 0 0-3.134z" fill="#333"/><path fill="none" d="M0 0h32v32H0z"/></svg>