<svg xmlns="http://www.w3.org/2000/svg" viewBox="0 0 32 32"><title>rexicon-32-rakuten-account-f</title><path fill="none" d="M0 0h32v32H0z"/><path d="M25 19a24.276 24.276 0 0 0-4.854-3.388.989.989 0 0 1-.23-1.547C21.306 12.583 22 11.333 22 8a5.764 5.764 0 0 0-6.002-6A5.764 5.764 0 0 0 10 8c0 3.333.695 4.583 2.083 6.065a.989.989 0 0 1-.23 1.547A24.279 24.279 0 0 0 7 19c-1.675 1.675-1.947 5.457-1.992 8.991A1.985 1.985 0 0 0 6.996 30h18.007a1.986 1.986 0 0 0 1.988-2.009C26.947 24.456 26.675 20.675 25 19z" fill="#333"/></svg>