<svg xmlns="http://www.w3.org/2000/svg" viewBox="0 0 32 32"><title>rexicon-32-calculator-l</title><path fill="none" d="M0 0h32v32H0z"/><g fill="#333"><path d="M25 3H7a4 4 0 0 0-4 4v18a4 4 0 0 0 4 4h18a4 4 0 0 0 4-4V7a4 4 0 0 0-4-4zM15 27H7a2.002 2.002 0 0 1-2-2v-8h10zm0-12H5V7a2.002 2.002 0 0 1 2-2h8zm12 10a2.002 2.002 0 0 1-2 2h-8V17h10zm0-10H17V5h8a2.002 2.002 0 0 1 2 2z"/><path d="M7 11h2v2h2v-2h2V9h-2V7H9v2H7v2zm12-2h6v2h-6zm0 10h6v2h-6zm0 4h6v2h-6zM8.459 24.977l1.552-1.552 1.552 1.552 1.414-1.414-1.552-1.552 1.552-1.552-1.414-1.414-1.552 1.552-1.552-1.552-1.414 1.414 1.552 1.552-1.552 1.552 1.414 1.414z"/></g></svg>