<svg xmlns="http://www.w3.org/2000/svg" viewBox="0 0 32 32"><title>rexicon-32-paint-f</title><path fill="none" d="M0 0h32v32H0z"/><path d="M29.706 25.703C29.222 24.695 27 21 27 21s-2.222 3.695-2.706 4.703a3 3 0 1 0 5.412 0zM16.1 3.018l-1.31 1.309-1.133-1.196a3.874 3.874 0 0 0-5.48 5.479l1.165 1.165-5.179 5.179a3.973 3.973 0 0 0 0 5.618l6.283 6.282a3.973 3.973 0 0 0 5.618 0L28 14.918zM16 14a1.998 1.998 0 0 1-1.96-2.395l-3.264-3.264-.02.02-1.164-1.165a1.875 1.875 0 0 1 2.632-2.67l1.152 1.215-1.186 1.186 3.183 3.183A1.98 1.98 0 0 1 16 10a2 2 0 0 1 0 4z" fill="#333"/></svg>