<svg xmlns="http://www.w3.org/2000/svg" viewBox="0 0 32 32"><title>rexicon-32-favorite-half-f</title><path d="M28.052 12.05l-7.749-1.065L17 3.647a1.094 1.094 0 0 0-1.998 0l-3.304 7.338L3.95 12.05a1.1 1.1 0 0 0-.625 1.87l5.714 5.703-1.432 8.083a1.097 1.097 0 0 0 1.624 1.146L16 24.96l6.77 3.892a1.097 1.097 0 0 0 1.624-1.146l-1.432-8.083 5.714-5.704a1.1 1.1 0 0 0-.624-1.869zm-6.503 6.157l-.738.737.182 1.028 1.095 6.181-5.091-2.927-.997-.573V6.3l2.48 5.506.455 1.01 1.096.15 5.95.818z" fill="#333"/><path fill="none" d="M0 0h32v32H0z"/></svg>