<svg xmlns="http://www.w3.org/2000/svg" viewBox="0 0 32 32"><title>rexicon-32-pin-l</title><path d="M27.395 11.109l-6.503-6.504a2.067 2.067 0 0 0-2.925.002l-.217.218a1.966 1.966 0 0 0-.603 1.431c.025.797-.267 2.228-2.078 4.038a5.428 5.428 0 0 1-3.959 1.5 9.447 9.447 0 0 1-2.336-.315 1.97 1.97 0 0 0-.495-.063 2.078 2.078 0 0 0-1.463.614l-.21.21a2.067 2.067 0 0 0 0 2.923l10.23 10.231a2.067 2.067 0 0 0 2.923 0l.21-.21a2.053 2.053 0 0 0 .55-1.959c-.394-1.521-.761-4.349 1.186-6.296 1.74-1.74 3.129-2.075 3.942-2.075l.092.001h.055a1.978 1.978 0 0 0 1.382-.605l.22-.218a2.067 2.067 0 0 0-.001-2.923zm-1.414 1.509l-.246.237-.089-.001c-1.229 0-3.156.462-5.356 2.661-1.965 1.966-2.572 4.882-1.708 8.205a.093.093 0 0 1-.028.05l-.21.21a.06.06 0 0 1-.047.02.059.059 0 0 1-.047-.02L8.02 13.75a.067.067 0 0 1-.001-.094l.211-.211a.228.228 0 0 1 .042-.03 11.327 11.327 0 0 0 2.838.379 7.399 7.399 0 0 0 5.373-2.085c2.235-2.235 2.688-4.188 2.665-5.45l.019-.022.216-.217A.06.06 0 0 1 19.43 6a.061.061 0 0 1 .047.02l6.503 6.503a.067.067 0 0 1 0 .095zM4 26v2h2l5.306-5.306-2-2L4 26z" fill="#333"/><path fill="none" d="M0 0h32v32H0z"/></svg>