<svg xmlns="http://www.w3.org/2000/svg" viewBox="0 0 32 32"><title>rexicon-32-ferry-l</title><g fill="#333"><path d="M6.992 13.707l-.01-2.676 3-.01-.016-5 12-.041.017 5 3-.01.009 2.676 2.002.609-.011-3.292a2 2 0 0 0-2.007-1.993l-1 .003-.01-3A2 2 0 0 0 21.96 3.98l-5 .017-.007-2-2 .007.007 2-5 .017a2 2 0 0 0-1.993 2.006l.01 3-1 .004a2 2 0 0 0-1.993 2.006l.011 3.293z"/><path d="M11.973 8.013l2-.006.01 3-2 .006zm6-.02l2-.006.01 3-2 .006zM28.04 26.959a1.773 1.773 0 0 1-1.599 1.031 1.814 1.814 0 0 1-1.604-.982l-1.997-.031a1.773 1.773 0 0 1-1.6 1.03 1.814 1.814 0 0 1-1.603-.982l-1.997-.03a1.773 1.773 0 0 1-1.599 1.03 1.812 1.812 0 0 1-1.603-.982l-1.997-.03a1.774 1.774 0 0 1-1.6 1.03 1.812 1.812 0 0 1-1.603-.982L7.24 27.03a1.766 1.766 0 0 1-3.206.01l.003.039-2 .006a3.545 3.545 0 0 0 3.61 2.95 3.794 3.794 0 0 0 2.597-1.037 3.802 3.802 0 0 0 5.2-.017 3.8 3.8 0 0 0 5.199-.018 3.802 3.802 0 0 0 5.2-.018 3.794 3.794 0 0 0 2.604 1.02 3.545 3.545 0 0 0 3.59-2.975zM5.697 25.035l2.109-.007-2.253-6.683 9.445-2.941.033 9.6 2-.007-.033-9.6 9.465 2.877-2.207 6.698 2.108-.007 1.999-6.065a2 2 0 0 0-1.318-2.54l-10.466-3.181a2 2 0 0 0-1.177.004L4.958 16.436a2 2 0 0 0-1.3 2.548z"/></g><path fill="none" d="M-.054.055l32-.11.108 32-32 .11z"/></svg>