<svg xmlns="http://www.w3.org/2000/svg" viewBox="0 0 32 32"><title>rexicon-32-sliders-l</title><path d="M24 6a2.006 2.006 0 0 0-2-2h-2a2.006 2.006 0 0 0-2 2H3v2h15a2.006 2.006 0 0 0 2 2h2a2.006 2.006 0 0 0 2-2h5V6zm-2 2h-2V6h2zm0 14h-2a2.006 2.006 0 0 0-2 2H3v2h15a2.006 2.006 0 0 0 2 2h2a2.006 2.006 0 0 0 2-2h5v-2h-5a2.006 2.006 0 0 0-2-2zm0 4h-2v-2h2zM11 13H9a2.006 2.006 0 0 0-2 2H3v2h4a2.006 2.006 0 0 0 2 2h2a2.006 2.006 0 0 0 2-2h16v-2H13a2.006 2.006 0 0 0-2-2zm0 4H9v-2h2z" fill="#333"/><path fill="none" d="M0 0h32v32H0z"/></svg>