<svg xmlns="http://www.w3.org/2000/svg" viewBox="0 0 32 32"><title>Artboard 110</title><path fill="none" d="M0 0h32v32H0z"/><g fill="#333"><path d="M9.967 13.413a12.05 12.05 0 0 1 1.079-1.38c-1.355-.367-3.19-.968-3.19-2.97a2.765 2.765 0 0 1 1.73-2.344A3.43 3.43 0 0 1 10 6.564V5h1.99v1.483a6.464 6.464 0 0 1 2.785 1.381l-1.27 1.498c-1.137-.91-2.24-1.238-3.025-.908a1.013 1.013 0 0 0-.624.611c0 .516.385.745 1.962 1.166.28.075.583.16.885.257a11.94 11.94 0 0 1 6.784-2.463A8.995 8.995 0 1 0 8.024 19.486a11.982 11.982 0 0 1 1.017-4.351A9.042 9.042 0 0 1 7 13.919l1.255-1.509a6.973 6.973 0 0 0 1.712 1.003z"/><path d="M20 10a10 10 0 1 0 10 10 10 10 0 0 0-10-10zm5 8.5V20h-3.828l-.172.27v1.23h4V23h-4v3h-2v-3h-4v-1.5h4v-1.23l-.172-.27H15v-1.5h2.871L15 14h2.31L20 18.15 22.69 14H25l-2.871 4.5z"/></g></svg>