<svg xmlns="http://www.w3.org/2000/svg" viewBox="0 0 32 32"><title>rexicon-32-rss-text-f</title><g fill="#333"><path d="M9.012 12.745H7.717v3.33h1.295a1.665 1.665 0 0 0 0-3.33z"/><path d="M28 6H4a2 2 0 0 0-2 2v16a2 2 0 0 0 2 2h24a2 2 0 0 0 2-2V8a2 2 0 0 0-2-2zM11.187 20.847l-.015-.025-1.863-3.156H7.717v3.18H6v-9.693h3.012a3.325 3.325 0 0 1 3.45 3.263 2.677 2.677 0 0 1-1.456 2.644l-.082.04 2.435 3.747zM16.01 21a4.176 4.176 0 0 1-3.255-1.536l-.028-.033 1.06-1.173.037.043a2.997 2.997 0 0 0 2.198 1.119c.966 0 1.59-.488 1.59-1.244a1.119 1.119 0 0 0-.634-1.095 5.128 5.128 0 0 0-1.193-.454c-2.076-.65-2.885-1.45-2.885-2.852A2.941 2.941 0 0 1 16.096 11a4.011 4.011 0 0 1 2.824 1.11l.035.033-1.086 1.253-.038-.039a2.385 2.385 0 0 0-1.722-.775 1.283 1.283 0 0 0-1.38 1.193 1.01 1.01 0 0 0 .616.913 9.494 9.494 0 0 0 1.358.499l-.015.047.016-.047c1.935.65 2.724 1.512 2.724 2.978C19.43 19.834 18.023 21 16.01 21zm6.571 0a4.176 4.176 0 0 1-3.255-1.536l-.028-.033 1.06-1.173.037.043a2.997 2.997 0 0 0 2.198 1.119c.966 0 1.59-.488 1.59-1.244a1.119 1.119 0 0 0-.634-1.095 5.128 5.128 0 0 0-1.193-.454c-2.076-.65-2.885-1.45-2.885-2.852A2.941 2.941 0 0 1 22.668 11a4.011 4.011 0 0 1 2.823 1.11l.035.033-1.086 1.253-.038-.04a2.385 2.385 0 0 0-1.722-.775 1.283 1.283 0 0 0-1.38 1.194 1.01 1.01 0 0 0 .616.913 9.494 9.494 0 0 0 1.358.498l-.015.048.016-.047c1.936.65 2.725 1.512 2.725 2.977C26 19.834 24.594 21 22.58 21z"/></g><path fill="none" d="M0 0h32v32H0z"/></svg>