<svg xmlns="http://www.w3.org/2000/svg" viewBox="0 0 32 32"><title>rexicon-32-ferry-f</title><g fill="#333"><path d="M16.588 12.088L27 15.292V11a2 2 0 0 0-2-2h-1V6a2 2 0 0 0-2-2h-5V2h-2v2h-5a2 2 0 0 0-2 2v3H7a2 2 0 0 0-2 2v4.292l10.412-3.204a2 2 0 0 1 1.176 0zM18 7h2v3h-2zm-4 3h-2V7h2zm14.003 17a1.772 1.772 0 0 1-1.603 1.025 1.813 1.813 0 0 1-1.6-.987L22.803 27a1.772 1.772 0 0 1-1.603 1.025 1.813 1.813 0 0 1-1.6-.987L17.602 27A1.772 1.772 0 0 1 16 28.025a1.812 1.812 0 0 1-1.6-.987L12.403 27a1.774 1.774 0 0 1-1.603 1.025 1.812 1.812 0 0 1-1.6-.987L7.203 27a1.766 1.766 0 0 1-3.206 0l.003.038H2A3.545 3.545 0 0 0 5.6 30a3.794 3.794 0 0 0 2.6-1.028 3.802 3.802 0 0 0 5.2 0 3.801 3.801 0 0 0 5.2 0 3.802 3.802 0 0 0 5.2 0A3.794 3.794 0 0 0 26.4 30a3.545 3.545 0 0 0 3.6-2.962z"/><path d="M5.333 25H15V14.308l-10.043 3.09a2 2 0 0 0-1.31 2.544zM17 25h9.667l1.685-5.058a2 2 0 0 0-1.309-2.544L17 14.308z"/></g><path fill="none" d="M0 0h32v32H0z"/></svg>