<svg xmlns="http://www.w3.org/2000/svg" viewBox="0 0 32 32"><title>rexicon-32-luckykuji-f</title><g fill="#333"><path d="M8.758 16.542l4.36-1.868 3 3.001a1.1 1.1 0 0 0 1.557-1.557l-3.001-3 1.868-4.36L9.784 2l-1.91 4.459-1.667-1.666-1.414 1.414 1.666 1.666L2 9.784zm1.769-10.686l3.404 3.405-.934 2.18-3.404-3.405zM8.036 9.593l3.404 3.404-2.18.934-3.404-3.404z"/><path d="M17 4a13.027 13.027 0 0 0-2.19.198l3.982 3.982A9 9 0 1 1 8.18 18.792l-3.982-3.981A12.993 12.993 0 1 0 17 4z"/><path d="M16.897 19.998a3.08 3.08 0 0 1-2.193-.909l-2.044-2.043-2.56 1.096a6.996 6.996 0 1 0 8.042-8.04l-1.096 2.558 2.044 2.044a3.1 3.1 0 0 1-2.193 5.293z"/></g><path fill="none" d="M0 0h32v32H0z"/></svg>