<svg xmlns="http://www.w3.org/2000/svg" viewBox="0 0 32 32"><title>rexicon-32-delivery-f</title><path fill="none" d="M0 0h32v32H0z"/><circle cx="10" cy="26" r="1" fill="none"/><circle cx="25" cy="26" r="1" fill="none"/><path d="M17 4H5a2.006 2.006 0 0 0-2 2v19a2.006 2.006 0 0 0 2 2h2.184a2.983 2.983 0 0 0 5.632 0H19V6a2.006 2.006 0 0 0-2-2zm-7 23a1 1 0 1 1 1-1 1.001 1.001 0 0 1-1 1zM25 8h-4v19h1.184a2.983 2.983 0 0 0 5.632 0H28a2 2 0 0 0 2-2v-7zm0 19a1 1 0 1 1 1-1 1.001 1.001 0 0 1-1 1zm-2-9v-6h1.764l3 6z" fill="#333"/></svg>