<svg xmlns="http://www.w3.org/2000/svg" viewBox="0 0 32 32"><title>rexicon-32-blockquote-right</title><path d="M0 0h32v32H0z" fill="none"/><path d="M18.468 23.769a1.914 1.914 0 0 0-1.17 1.65 1.432 1.432 0 0 0 .399 1.038 1.358 1.358 0 0 0 1.016.412q1.54 0 4.246-1.91a17.363 17.363 0 0 0 5.09-5.454 12.46 12.46 0 0 0 1.892-6.346 8.732 8.732 0 0 0-.524-2.95 7.673 7.673 0 0 0-1.414-2.488 5.708 5.708 0 0 0-4.49-2.208 5.6 5.6 0 0 0-4.46 2.013 6.338 6.338 0 0 0-1.124 1.96 6.575 6.575 0 0 0-.416 2.258 6.692 6.692 0 0 0 1.227 4.055 4.72 4.72 0 0 0 3.228 1.976l.493.032.369.068c.613.088.922.34.922.757a4.147 4.147 0 0 1-1.202 2.076 15.892 15.892 0 0 1-4.082 3.06zm-15.237 0a1.913 1.913 0 0 0-1.172 1.65 1.425 1.425 0 0 0 .4 1.038 1.356 1.356 0 0 0 1.018.412q1.54 0 4.254-1.91a17.573 17.573 0 0 0 5.115-5.454 12.365 12.365 0 0 0 1.91-6.346 8.733 8.733 0 0 0-.524-2.95 7.678 7.678 0 0 0-1.416-2.488 5.753 5.753 0 0 0-4.53-2.208 5.671 5.671 0 0 0-4.47 2.013A6.336 6.336 0 0 0 2.69 9.47a6.538 6.538 0 0 0-.416 2.276 6.541 6.541 0 0 0 1.249 4.036 4.939 4.939 0 0 0 3.256 1.993l.464.032.401.068c.615.088.925.34.925.757a4.122 4.122 0 0 1-1.235 2.076 14.839 14.839 0 0 1-4.104 3.06z" fill="#333"/></svg>