<svg xmlns="http://www.w3.org/2000/svg" viewBox="0 0 32 32"><title>rexicon-32-pdf-l</title><g fill="#333"><path d="M26 28H6V4h12V2H6a2 2 0 0 0-2 2v24a2 2 0 0 0 2 2h20a2 2 0 0 0 2-2V12h-2z"/><path d="M22 10h6l-8-8v6a2 2 0 0 0 2 2zM8 14v7h1.4v-2.4h1.3a2.3 2.3 0 1 0 0-4.6zm3.6 2.3a.901.901 0 0 1-.9.9H9.4v-1.8h1.3a.901.901 0 0 1 .9.9zM14 14v7h2a3.009 3.009 0 0 0 3-3v-1a3.009 3.009 0 0 0-3-3zm3.6 3v1a1.602 1.602 0 0 1-1.6 1.6h-.6v-4.2h.6a1.602 1.602 0 0 1 1.6 1.6zm3.8 1.4h2.2V17h-2.2v-1.6H24V14h-4v7h1.4v-2.6z"/></g><path fill="none" d="M0 0h32v32H0z"/></svg>