<svg xmlns="http://www.w3.org/2000/svg" viewBox="0 0 32 32"><title>rexicon-32-plane-f</title><path fill="none" d="M0 0h32v32H0z"/><path d="M23.729 12.07l2.333-2.334C27.58 8.217 31.379 4.42 29.48 2.52s-5.697 1.899-7.216 3.418L19.93 8.271 4.744 5.74a2.149 2.149 0 0 0-1.872.6l-.557.557A1.074 1.074 0 0 0 2.49 8.56l10.413 6.738-3.022 3.023-4.288-1.073a2.148 2.148 0 0 0-2.04.565l-.492.493a1.074 1.074 0 0 0 .163 1.653l3.467 2.312.165-.165a2.564 2.564 0 0 0 .595 2.443 2.564 2.564 0 0 0 2.443.596l-.164.164 2.311 3.467a1.074 1.074 0 0 0 1.653.164l.492-.492a2.149 2.149 0 0 0 .566-2.04l-1.073-4.29 3.022-3.022L23.44 29.51a1.074 1.074 0 0 0 1.662.176l.557-.557a2.148 2.148 0 0 0 .6-1.872z" fill="#333"/></svg>