<svg xmlns="http://www.w3.org/2000/svg" viewBox="0 0 32 32"><title>rexicon-32-map-f</title><path fill="none" d="M0 0h32v32H0z"/><g fill="#333"><path d="M2 11.595v13.98a2.02 2.02 0 0 0 1.425 1.936L10 29.506V11.304L4.575 9.658A2.004 2.004 0 0 0 2 11.596zm21 11.233l-1.414-1.414a40.596 40.596 0 0 1-.586-.6v6.602l5.368 1.81A2.004 2.004 0 0 0 29 27.305v-11.3a45.166 45.166 0 0 1-4.586 5.408zM12 12v18l7-2.542v-8.875a24.504 24.504 0 0 1-4.634-7.51z"/><path d="M30 9a7 7 0 0 0-14 0c0 4 7 11 7 11s7-7 7-11zm-9.5 0a2.5 2.5 0 1 1 2.5 2.5A2.5 2.5 0 0 1 20.5 9z"/></g></svg>