<svg xmlns="http://www.w3.org/2000/svg" viewBox="0 0 32 32"><title>rexicon-32-compare-f</title><path fill="#333" d="M9.663 11.889h1.674L10.5 9.455l-.837 2.434zm12.938-1.75a.583.583 0 0 0-.583-.583h-1.963v1.166h1.963a.583.583 0 0 0 .583-.583zm.344 2.722a.583.583 0 0 0-.584-.583h-2.306v1.167h2.306a.583.583 0 0 0 .584-.584z"/><path d="M25 3H7a4.012 4.012 0 0 0-4 4v18a4.012 4.012 0 0 0 4 4h18a4.012 4.012 0 0 0 4-4V7a4.012 4.012 0 0 0-4-4zm-6.5 5h3.596a1.981 1.981 0 0 1 2.062 1.966 1.479 1.479 0 0 1-1.044 1.44A1.55 1.55 0 0 1 24.5 12.99 1.922 1.922 0 0 1 22.438 15H18.5zM14 24H7v-2h7zm0-4H7v-2h7zm-1.593-5l-.535-1.556H9.128L8.593 15H7l2.408-7h2.185L14 15zM25 24h-7v-2h7zm0-4h-7v-2h7z" fill="#333"/><path fill="none" d="M0 0h32v32H0z"/></svg>