<svg xmlns="http://www.w3.org/2000/svg" viewBox="0 0 32 32"><title>rexicon-32-delivery-l</title><path fill="none" d="M0 0h32v32H0z"/><path d="M25 8h-4v2h2.764l1 2H23v6h4.764l.236.472V25h-.184a2.983 2.983 0 0 0-5.632 0H21v2h1.184a2.983 2.983 0 0 0 5.632 0H28a2 2 0 0 0 2-2v-7zm0 19a1 1 0 1 1 1-1 1.001 1.001 0 0 1-1 1zM17 4H5a2.006 2.006 0 0 0-2 2v19a2.006 2.006 0 0 0 2 2h2.184a2.983 2.983 0 0 0 5.632 0H19V6a2.006 2.006 0 0 0-2-2zm-7 23a1 1 0 1 1 1-1 1.001 1.001 0 0 1-1 1zm7-2h-4.184a2.983 2.983 0 0 0-5.632 0H5V6h12z" fill="#333"/></svg>