<svg xmlns="http://www.w3.org/2000/svg" viewBox="0 0 32 32"><title>rexicon-32-cloud-l</title><path fill="none" d="M0 0h32v32H0z"/><path d="M14 8a6.018 6.018 0 0 1 5.627 3.94l.657 1.794 1.822-.574A2.963 2.963 0 0 1 23 13a2.933 2.933 0 0 1 2.867 3.808l-.357 1.263 1.017.83A3.999 3.999 0 0 1 24 26H9a4.996 4.996 0 0 1-2.117-9.523l1.258-.59-.114-1.384A6.102 6.102 0 0 1 8 14a6.007 6.007 0 0 1 6-6m0-2a8 8 0 0 0-8 8c0 .225.016.446.034.666A6.996 6.996 0 0 0 9 28h15a5.999 5.999 0 0 0 3.792-10.649A4.945 4.945 0 0 0 28 16a5 5 0 0 0-5-5 4.947 4.947 0 0 0-1.495.253A7.995 7.995 0 0 0 14 6z" fill="#333"/></svg>