<svg xmlns="http://www.w3.org/2000/svg" viewBox="0 0 32 32"><title>rexicon-32-pin-f</title><path d="M27.395 11.109l-6.503-6.504a2.067 2.067 0 0 0-2.925.002l-.217.218a1.966 1.966 0 0 0-.603 1.431c.025.797-.267 2.228-2.078 4.038-1.946 1.947-4.773 1.58-6.295 1.185a2.053 2.053 0 0 0-1.959.551l-.21.21a2.067 2.067 0 0 0 0 2.924l10.23 10.23a2.067 2.067 0 0 0 2.923 0l.21-.21a2.053 2.053 0 0 0 .55-1.959c-.394-1.521-.76-4.349 1.186-6.295 1.808-1.808 3.237-2.1 4.035-2.074a1.967 1.967 0 0 0 1.437-.605l.218-.219a2.067 2.067 0 0 0 0-2.923zM4 26v2h2l5.306-5.306-2-2L4 26z" fill="#333"/><path fill="none" d="M0 0h32v32H0z"/></svg>