<svg xmlns="http://www.w3.org/2000/svg" viewBox="0 0 32 32"><title>rexicon-32-my-page-f</title><g fill="#333"><path d="M29.615 28.325a18.56 18.56 0 0 0-.415-2.267 1.875 1.875 0 0 0-.59-.975 14.82 14.82 0 0 0-3.905-2.275 1.585 1.585 0 0 1-.957-1.115 1.56 1.56 0 0 1 .392-1.414c1.06-1.126 1.327-1.776 1.327-4.529 0-3.019-1.582-4.75-4.341-4.75s-4.34 1.731-4.34 4.75c0 2.753.266 3.403 1.326 4.529a1.56 1.56 0 0 1 .391 1.414 1.585 1.585 0 0 1-.956 1.115 14.82 14.82 0 0 0-3.905 2.275 1.874 1.874 0 0 0-.59.975 18.56 18.56 0 0 0-.416 2.267A1.51 1.51 0 0 0 14.151 30H28.1a1.51 1.51 0 0 0 1.514-1.675z"/><path d="M14.785 15.75c0-4.1 2.489-6.75 6.34-6.75a7.8 7.8 0 0 1 .875.053V4a2 2 0 0 0-2-2H4a2 2 0 0 0-2 2v18a2 2 0 0 0 2 2h7.91a3.744 3.744 0 0 1 .433-.438 16.341 16.341 0 0 1 3.901-2.375c-1.236-1.485-1.459-2.773-1.459-5.437zM6 7h10v2H6zm4 10H6v-2h4zm3-4H6v-2h7z"/></g><path fill="none" d="M0 0h32v32H0z"/></svg>