<svg data-name="Layer 1" xmlns="http://www.w3.org/2000/svg" viewBox="0 0 32 32"><title>rexicon-32-fill-color-f</title><path d="M24 27a3 3 0 0 1 .29-1.3C24.78 24.7 27 21 27 21s2.22 3.7 2.71 4.7A3 3 0 1 1 24 27zM16 3l-2 2-2-2a3.58 3.58 0 0 0-5 0 3.5 3.5 0 0 0 0 5l2 2-5 5a4 4 0 0 0 0 5.66L10.33 27A4 4 0 0 0 16 27l12-12zm-1.14 10.57a2 2 0 0 1-1.93-2.51l-2.47-2.48-2-2a1.5 1.5 0 0 1 0-2.12 1.54 1.54 0 0 1 2.11 0l2 2-.68.68 2.48 2.48a2 2 0 1 1 .51 3.93z" fill="#333"/><path fill="none" d="M0 0h32v32H0z"/></svg>