<svg xmlns="http://www.w3.org/2000/svg" viewBox="0 0 32 32"><title>rexicon-32-code-l</title><path d="M10.707 22.707L6 18l4.707-4.707 1.414 1.414L8.828 18l3.293 3.293-1.414 1.414zm10.586 0l-1.414-1.414L23.172 18l-3.293-3.293 1.414-1.414L26 18l-4.707 4.707zM14.918 25L13 24.419 17.082 11l1.918.581L14.918 25z" fill="#333"/><path d="M28 7H16l-1.37-2.863A2 2 0 0 0 12.826 3H5.508a2 2 0 0 0-1.923 1.45L2 10v17a2 2 0 0 0 2 2h24a2 2 0 0 0 2-2V9a2 2 0 0 0-2-2zm0 20H4V10.28L5.508 5h7.317l1.37 2.863L14.74 9H28z" fill="#333"/><path fill="none" d="M0 0h32v32H0z"/></svg>